<svg xmlns="http://www.w3.org/2000/svg" width="20.264" height="22.306" viewBox="0 0 20.264 22.306">
  <g id="Group_205" data-name="Group 205" transform="translate(-144 -176)">
    <path id="Path_100" data-name="Path 100" d="M240.646-1796.244c.521.1,1.048.177,1.561.31a5.257,5.257,0,0,1,3.024,2.026,4.071,4.071,0,0,1,.671,3.157c-.086.561-.1.5.372.639a.682.682,0,0,1,.541.688,4.924,4.924,0,0,1-.426,2.181.83.83,0,0,1-.727.542c-.3.022-.407.178-.482.451a6.13,6.13,0,0,1-3.613,4.053,2.01,2.01,0,0,1-1.73-.027,6.127,6.127,0,0,1-3.564-4.094.464.464,0,0,0-.377-.388,1.161,1.161,0,0,1-.846-.734,4.287,4.287,0,0,1-.382-1.942c.025-.453.172-.662.615-.755.246-.052.279-.177.27-.388a8.517,8.517,0,0,1,.149-2.566,2.855,2.855,0,0,1,2.891-2.289.763.763,0,0,0,.743-.452c.1-.195.414-.279.633-.414Z" transform="translate(-86.608 1972.244)" fill="#1baae2"/>
    <path id="Path_101" data-name="Path 101" d="M236.065-1766.866c.1-.158.16-.239.21-.324.378-.645.748-1.3,1.138-1.933a.375.375,0,0,0-.1-.574,1.837,1.837,0,0,1-.695-1.385.9.9,0,0,1,.5-.909,2.581,2.581,0,0,1,2.475-.055.935.935,0,0,1,.57,1.076,1.992,1.992,0,0,1-.727,1.312.347.347,0,0,0-.08.526c.4.654.793,1.317,1.188,1.974.046.076.1.145.188.265.267-.727.518-1.4.763-2.083.293-.808.581-1.618.871-2.427.153-.424.215-.453.626-.307,1.012.361,2.034.695,3.031,1.093a6.172,6.172,0,0,1,1.411.789,2.767,2.767,0,0,1,1.073,2.128,12.9,12.9,0,0,1,0,1.291,1.236,1.236,0,0,1-1.168,1.205c-.112.009-.225.01-.338.01q-8.549.009-17.1.018a1.469,1.469,0,0,1-1.548-.815.557.557,0,0,1-.073-.2,7.007,7.007,0,0,1,.138-2.29,2.867,2.867,0,0,1,1.681-1.854c1.278-.52,2.587-.966,3.885-1.438.264-.1.338.107.406.3q.6,1.675,1.2,3.351C235.744-1767.731,235.891-1767.339,236.065-1766.866Z" transform="translate(-84.262 1963.482)" fill="#1baae2"/>
  </g>
</svg>
