<svg xmlns="http://www.w3.org/2000/svg" width="16.481" height="18.835" viewBox="0 0 16.481 18.835">
  <path id="Icon_metro-attachment" data-name="Icon metro-attachment" d="M15.193,7.944,14,6.75,8.024,12.723a2.534,2.534,0,0,0,3.585,3.584l7.169-7.168A4.224,4.224,0,0,0,12.8,3.166L5.277,10.692l-.016.016a5.891,5.891,0,0,0,8.332,8.331l.015-.016h0l5.138-5.137-1.2-1.194-5.138,5.137-.016.016A4.2,4.2,0,0,1,6.455,11.9l.016-.016h0L14,4.36a2.534,2.534,0,0,1,3.585,3.584l-7.169,7.168a.845.845,0,1,1-1.2-1.194l5.974-5.974Z" transform="translate(-3.535 -1.928)" fill="#919191"/>
</svg>
