<svg xmlns="http://www.w3.org/2000/svg" width="18.301" height="18.299" viewBox="0 0 18.301 18.299">
  <g id="Group_48" data-name="Group 48" transform="translate(-1529.509 298.32)">
    <path id="Path_29" data-name="Path 29" d="M1534.847-284.962a1.09,1.09,0,0,1-.375,1.464,1.087,1.087,0,0,1-1.361-.185,1.088,1.088,0,0,1-.094-1.361,1.074,1.074,0,0,1,1.31-.371.183.183,0,0,0,.248-.046c.649-.656,1.3-1.307,1.958-1.96.009-.009.015-.02.032-.042a2.843,2.843,0,0,1-.608-1.453h-1.026l-1.128,0-1.167,0c-.089,0-.18,0-.269,0-.109-.009-.162.022-.2.139a1.358,1.358,0,0,1-2.148.673,1.364,1.364,0,0,1-.428-1.538,1.361,1.361,0,0,1,1.313-.888,1.346,1.346,0,0,1,1.259.959c.038.128.1.15.217.149.658-.005,1.316,0,1.973,0,.508,0,1.016,0,1.524,0,.028,0,.079-.04.081-.064a2.728,2.728,0,0,1,.557-1.412.116.116,0,0,1,.025-.036c-.1-.088-.2-.172-.293-.265q-.855-.85-1.7-1.706a.136.136,0,0,0-.186-.031,1.074,1.074,0,0,1-1.289-.288,1.084,1.084,0,0,1-.056-1.311,1.085,1.085,0,0,1,1.262-.4,1.069,1.069,0,0,1,.7,1.107,3.079,3.079,0,0,1-.117.468l2.048,2.049a2.793,2.793,0,0,1,1.134-.581l.075-.018c.277-.058.276-.058.277-.348,0-.739.006-1.479.007-2.218,0-.333-.009-.667,0-1a.15.15,0,0,0-.128-.176,1.354,1.354,0,0,1-.973-1.365,1.367,1.367,0,0,1,1.072-1.265,1.365,1.365,0,0,1,1.592.932,1.361,1.361,0,0,1-.836,1.675c-.205.073-.205.073-.205.3,0,1.085,0,2.171,0,3.256,0,.116.027.161.149.175a2.693,2.693,0,0,1,1.378.583l2.012-2.022a1.085,1.085,0,0,1-.064-.91,1.053,1.053,0,0,1,.459-.55,1.09,1.09,0,0,1,1.341.185,1.087,1.087,0,0,1,.107,1.36,1.1,1.1,0,0,1-1.442.33l-2,2c.092.146.195.3.286.454a2.355,2.355,0,0,1,.3.971c.009.1.04.13.141.129.619-.007,1.239-.008,1.858-.01.512,0,1.024,0,1.536,0a.135.135,0,0,0,.16-.116,1.357,1.357,0,0,1,1.471-.977,1.369,1.369,0,0,1,1.2,1.356,1.369,1.369,0,0,1-1.19,1.348,1.356,1.356,0,0,1-1.475-.97.148.148,0,0,0-.168-.127c-.431,0-.863,0-1.294,0h-1.128c-.333,0-.667,0-1,0-.033,0-.091.038-.095.065a2.823,2.823,0,0,1-.654,1.449c.037.04.069.077.1.113.62.62,1.241,1.238,1.857,1.861.075.076.125.048.2.018a1.04,1.04,0,0,1,1.131.156,1.02,1.02,0,0,1,.36,1.083,1.014,1.014,0,0,1-.822.8,1.02,1.02,0,0,1-1.066-.374,1.049,1.049,0,0,1-.146-1.133c.013-.031.029-.062.043-.093,0,0,0-.008,0,0l-2.053-2.053a2.821,2.821,0,0,1-1.484.574c0,.043-.007.08-.007.116q0,.693,0,1.385c0,.675,0,1.35,0,2.025a.22.22,0,0,0,.18.258,1.339,1.339,0,0,1,.917,1.4,1.367,1.367,0,0,1-1.121,1.222,1.364,1.364,0,0,1-1.475-.78,1.355,1.355,0,0,1,.838-1.858.165.165,0,0,0,.143-.192c-.005-1.158,0-2.316,0-3.475,0-.034,0-.067,0-.084a7.428,7.428,0,0,1-.765-.238,7.247,7.247,0,0,1-.69-.382Zm6.109-4.245a2.249,2.249,0,0,0-2.243-2.246,2.243,2.243,0,0,0-2.242,2.244,2.245,2.245,0,0,0,2.233,2.241A2.251,2.251,0,0,0,1540.955-289.206Zm-2.295,8.657a.836.836,0,0,0,.834-.833.837.837,0,0,0-.844-.836.834.834,0,0,0-.825.839A.833.833,0,0,0,1538.66-280.55Zm0-15.574a.838.838,0,0,0,.837-.83.837.837,0,0,0-.827-.839.832.832,0,0,0-.842.836A.834.834,0,0,0,1538.657-296.124Zm-6.953,6.96a.835.835,0,0,0-.823-.842.837.837,0,0,0-.845.835.836.836,0,0,0,.831.835A.833.833,0,0,0,1531.7-289.164Zm15.576-.01a.834.834,0,0,0-.833-.832.838.838,0,0,0-.835.832.838.838,0,0,0,.842.838A.832.832,0,0,0,1547.28-289.175Zm-3.873,5.311a.561.561,0,0,0,.556-.556.561.561,0,0,0-.552-.56.561.561,0,0,0-.563.562A.56.56,0,0,0,1543.407-283.863Zm-8.947-10.058a.556.556,0,0,0-.552-.558.56.56,0,0,0-.561.563.561.561,0,0,0,.56.552A.556.556,0,0,0,1534.459-293.921Zm0,9.5a.558.558,0,0,0-.554-.557.562.562,0,0,0-.56.552.561.561,0,0,0,.561.563A.558.558,0,0,0,1534.46-284.422Zm9.5-9.5a.56.56,0,0,0-.551-.56.559.559,0,0,0-.563.561.559.559,0,0,0,.545.553A.558.558,0,0,0,1543.963-293.919Z" transform="translate(0 0)" fill="#919191"/>
    <path id="Path_30" data-name="Path 30" d="M1825.377-7.807a1.7,1.7,0,0,1-1.7,1.692,1.7,1.7,0,0,1-1.69-1.706,1.7,1.7,0,0,1,1.7-1.692A1.7,1.7,0,0,1,1825.377-7.807Zm-1.686-1.178a1.169,1.169,0,0,0-1.182,1.166,1.171,1.171,0,0,0,1.16,1.175,1.175,1.175,0,0,0,1.184-1.166A1.174,1.174,0,0,0,1823.691-8.984Z" transform="translate(-284.969 -281.396)" fill="#919191"/>
  </g>
</svg>
