<svg xmlns="http://www.w3.org/2000/svg" width="22.681" height="22.681" viewBox="0 0 22.681 22.681">
  <g id="Group_50" data-name="Group 50" transform="translate(-273.188 -3538.55)">
    <path id="Path_31" data-name="Path 31" d="M284.528,3538.55h0a11.341,11.341,0,0,0-11.34,11.34h0a11.34,11.34,0,0,0,11.34,11.34h11.341v-11.34A11.341,11.341,0,0,0,284.528,3538.55Zm10.482,21.822H284.528a10.481,10.481,0,0,1-10.481-10.481h0a10.481,10.481,0,0,1,10.481-10.481h0a10.482,10.482,0,0,1,10.482,10.481Z" fill="#00aae2"/>
    <g id="Group_49" data-name="Group 49" transform="translate(279.557 3548.624)">
      <circle id="Ellipse_18" data-name="Ellipse 18" cx="1.266" cy="1.266" r="1.266" transform="translate(0 0)" fill="#00aae2"/>
      <circle id="Ellipse_19" data-name="Ellipse 19" cx="1.266" cy="1.266" r="1.266" transform="translate(3.894 0)" fill="#00aae2"/>
      <circle id="Ellipse_20" data-name="Ellipse 20" cx="1.266" cy="1.266" r="1.266" transform="translate(7.409 0)" fill="#00aae2"/>
    </g>
  </g>
</svg>
