<svg xmlns="http://www.w3.org/2000/svg" width="13.001" height="13.027" viewBox="0 0 13.001 13.027">
  <g id="Group_182" data-name="Group 182" transform="translate(-2000.087 -3440.06)" opacity="0.2">
    <path id="Path_142" data-name="Path 142" d="M2006.32,3440.06h.559c.055.009.109.021.164.025a6.041,6.041,0,0,1,2.982.965,6.351,6.351,0,0,1,3.026,6.274,6.113,6.113,0,0,1-1.875,3.865,6.414,6.414,0,0,1-7.306,1.277,6.32,6.32,0,0,1-3.67-4.759c-.055-.281-.075-.57-.112-.855v-.559a1.2,1.2,0,0,0,.023-.135,6.056,6.056,0,0,1,.591-2.323,6.411,6.411,0,0,1,4.763-3.663C2005.746,3440.117,2006.035,3440.1,2006.32,3440.06Zm1.1,3.921c.017-.141.083-.216.194-.233a1.5,1.5,0,0,1,.333-.018.912.912,0,0,0,.508-.121c.135-.074.142-.12.039-.233a.478.478,0,0,0-.071-.067,1.08,1.08,0,0,1-.418-.527.192.192,0,0,0-.134-.114c-.046,0-.106.063-.135.112-.052.087-.109.095-.182.038a.373.373,0,0,1-.106-.109c-.118-.23-.348-.246-.558-.289-.13-.027-.2.051-.171.181a1.884,1.884,0,0,0,.1.334.181.181,0,0,1-.1.266c-.132.058-.133.136-.066.24.054.084.006.121-.069.137a.14.14,0,0,1-.182-.147.16.16,0,0,0-.12-.191c-.057-.019-.115-.037-.171-.059-.212-.082-.431-.152-.634-.252s-.231-.278-.056-.435c.106-.095.237-.161.352-.246.057-.042.134-.088.152-.147.036-.121.105-.146.217-.143.206.007.247-.03.29-.234.05-.239.188-.3.4-.166.095.058.179.134.274.193s.095.126.027.194-.172.147-.273.231a.859.859,0,0,1,.577.2,1.331,1.331,0,0,0,.281.091l.01-.037-.158-.119.026-.033a.462.462,0,0,0,.125.05.469.469,0,0,0,.134-.025.767.767,0,0,0-.072-.134c-.018-.022-.058-.026-.088-.04-.077-.036-.1-.091-.046-.185.034.027.061.047.087.068.043.036.1.11.126.1a.81.81,0,0,0,.2-.13c-.184-.132-.425-.13-.511-.4l.795.508-.049.1c.359.054.359.054.384.179-.05-.012-.091-.022-.133-.031s-.084-.014-.126-.021l-.005.034a.38.38,0,0,1,.088.024c.074.04.19.071.207.129.035.12-.1.109-.175.151-.041.025-.079.055-.136.094l.12.022c0,.05-.019.11,0,.139a4.916,4.916,0,0,0,.477.592c.116.113.279.056.367-.089.062-.1.1-.225.166-.321.056-.078.14-.173.223-.185a.892.892,0,0,0,.454-.187.672.672,0,0,1,.257-.1,2.337,2.337,0,0,1,.276-.034c-.032-.036-.051-.06-.073-.082a5.822,5.822,0,0,0-2.805-1.562.675.675,0,0,0-.512.141l.156.043c-.1.158-.377.183-.64.064.153-.11.392-.1.474-.327a.607.607,0,0,0-.076-.021,5.43,5.43,0,0,0-1.806.077.409.409,0,0,0-.2.16c-.026.035,0,.107,0,.162.055,0,.126.016.162-.011a1.583,1.583,0,0,1,.871-.232,1.4,1.4,0,0,1-.316.063c-.247.024-.277.048-.338.289l.083.028a.882.882,0,0,1-.11.015.548.548,0,0,0-.1.047c-.152-.154-.221-.146-.328.025.055.05.131.091.158.152s-.012.125-.036.183c-.008.02-.062.021-.1.03.005-.054.011-.108.016-.162a.237.237,0,0,0-.012-.045l-.247-.062-.014.048.09.049c-.052.169-.059.173-.224.136l-.014,0c-.21-.017-.425-.128-.625.04-.01.009-.046,0-.064-.013-.052-.029-.1-.063-.15-.1v-.047a2.052,2.052,0,0,1,.285-.047c.087,0,.175.028.263.029.107,0,.219-.005.256-.157a.354.354,0,0,1-.353-.27,5.8,5.8,0,0,0-2.32,1.74,1.811,1.811,0,0,1,.628.645.636.636,0,0,1,.109.48.973.973,0,0,0,.444,1.1.635.635,0,0,1,.158.187c.181.247.36.5.541.743.005.007.022.005.054.012l-.407-.634.043-.038a.437.437,0,0,1,.135.078,4.091,4.091,0,0,1,.486.659c.177.355.51.453.821.6a.15.15,0,0,0,.1-.007.3.3,0,0,1,.348.107.255.255,0,0,0,.164.092c.182,0,.272.106.371.231a.478.478,0,0,0,.451.225c.157-.022.249.049.23.205a.5.5,0,0,1-.1.238.6.6,0,0,0-.148.423.18.18,0,0,1-.012.109c-.069.086-.025.158.02.227a2.266,2.266,0,0,0,.695.824.356.356,0,0,1,.179.368c-.017.157-.038.314-.055.471a3.69,3.69,0,0,1-.187,1c-.039.1,0,.228-.009.341a2.522,2.522,0,0,1-.07.382.522.522,0,0,1-.1.141c.062.041.117.11.169.108.175-.008.349-.041.475-.058.033-.107.05-.177.075-.243a1.834,1.834,0,0,1,.1-.214.964.964,0,0,1,.111-.167,1.43,1.43,0,0,1,.134-.126,1,1,0,0,0,.322-.115.957.957,0,0,0,.161-.3c.215-.034.214-.034.374-.239.063-.081.136-.154.2-.236a.762.762,0,0,0,.125-.213.39.39,0,0,1,.286-.276.6.6,0,0,0,.465-.615.529.529,0,0,1,.178-.407.9.9,0,0,0,.19-.253.219.219,0,0,0-.128-.339,4.107,4.107,0,0,0-.425-.13,2.9,2.9,0,0,1-.344-.1c-.1-.046-.192-.092-.24.065l-.109-.068.117-.056-.023-.029-.236.065a.526.526,0,0,1,.056-.132.2.2,0,0,0-.043-.314.552.552,0,0,0-.238-.135,1.305,1.305,0,0,1-.487-.226,1.722,1.722,0,0,0-.383-.148c-.072-.024-.151-.026-.223-.049a.842.842,0,0,0-.592.03c-.144.065-.259.156-.425.111a.19.19,0,0,0-.055,0c-.26.02-.365-.1-.3-.352a.148.148,0,0,0-.155-.2,1.029,1.029,0,0,1-.153,0c-.1-.014-.138-.069-.086-.166a2,2,0,0,0,.1-.183c.041-.1-.009-.167-.111-.135a.484.484,0,0,0-.185.135.359.359,0,0,1-.6-.073.543.543,0,0,1,.376-.751c.132-.029.265-.054.4-.077a.4.4,0,0,1,.5.229,1.936,1.936,0,0,0,.125.167l.05-.018a1.261,1.261,0,0,0,0-.234c-.059-.3-.062-.3.2-.484.027-.019.054-.036.08-.056.065-.05.12-.1.08-.2-.011-.028.02-.081.044-.113a1.582,1.582,0,0,1,.132-.144c.04-.042.079-.086.123-.125s.107-.086.16-.129c.117-.1.23-.2.353-.29a.442.442,0,0,1,.156-.04l.01.032-.208.141a.507.507,0,0,0,.442-.123.727.727,0,0,1,.456-.187h.283c-.058-.091-.107-.178-.167-.259-.1-.139-.171-.131-.252.025a.905.905,0,0,0-.046.1.362.362,0,0,1-.32.233c-.119.017-.178-.039-.166-.156.015-.144-.024-.177-.159-.12C2007.627,3443.867,2007.536,3443.922,2007.424,3443.981Zm4.871,1.749-.049-.021a1.65,1.65,0,0,1-.239.38,1.318,1.318,0,0,0-.41.505.9.9,0,0,0-.084.222c-.011.171,0,.343,0,.515a.3.3,0,0,0,.02.136,1.574,1.574,0,0,0,.626.6A5.706,5.706,0,0,0,2012.3,3445.73Zm-.258-1.077a.5.5,0,0,0-.215.608c.1.192.275.268.433.178Z" fill="#273850"/>
  </g>
</svg>
