<svg xmlns="http://www.w3.org/2000/svg" width="8.074" height="10.085" viewBox="0 0 8.074 10.085">
  <path id="Path_132" data-name="Path 132" d="M-1291.219,526.931c0-1.323,0-2.647,0-3.97a.976.976,0,0,1,.569-.956,1.206,1.206,0,0,1,.49-.1c1.3-.008,2.592-.006,3.888,0a.287.287,0,0,1,.18.081q1.441,1.433,2.874,2.875a.27.27,0,0,1,.068.174q.005,2.848,0,5.7a1.43,1.43,0,0,1-.1.67.99.99,0,0,1-.938.583q-2.169,0-4.337,0c-.54,0-1.079,0-1.619,0a1.01,1.01,0,0,1-1.081-1.077c0-.937,0-1.875,0-2.812Q-1291.22,527.51-1291.219,526.931Zm4.547-4.237v2.722h2.721Zm-1.007,5.246h3.01v-.994h-3.01Zm0,1.508a.737.737,0,0,0,.086.011q1.417,0,2.835,0c.082,0,.1-.034.1-.106,0-.228,0-.457,0-.685v-.21h-3.017Zm0,1.518c.049,0,.083.006.118.006l2.575,0c.083,0,.166,0,.248,0,.026,0,.071-.033.071-.052,0-.314,0-.628,0-.947h-3.016Zm-2.025-4.021c0,.316,0,.626,0,.935,0,.023.061.062.094.063.22.007.441,0,.661.005h.238v-1Zm1,1.515h-.993v.994h.993Zm0,2.514v-1h-1c0,.316,0,.626,0,.936a.1.1,0,0,0,.07.064C-1289.327,530.975-1289.02,530.974-1288.707,530.974Z" transform="translate(1291.22 -521.896)" fill="#575f6b"/>
</svg>
