<svg xmlns="http://www.w3.org/2000/svg" width="12.385" height="8.414" viewBox="0 0 12.385 8.414">
  <g id="Group_180" data-name="Group 180" transform="translate(-1272.84 -2861.444)" opacity="0.2">
    <path id="Path_136" data-name="Path 136" d="M1296.825,2861.484a2.734,2.734,0,0,1,.325-.039q3.52,0,7.04,0,1.709,0,3.417,0c.117,0,.234.024.385.04l-.7.661-2.055,1.936c-.66.622-1.317,1.247-1.98,1.865a1.266,1.266,0,0,1-1.77-.037q-1.509-1.43-3.027-2.851l-1.551-1.461c-.031-.029-.063-.055-.095-.083Z" transform="translate(-23.36)" fill="#273850"/>
    <path id="Path_137" data-name="Path 137" d="M1299.965,3060.355a2,2,0,0,0,2.573,0l4.312,3.216v.04a3.489,3.489,0,0,1-.378.043c-.587,0-1.173,0-1.76,0q-4.323,0-8.646,0c-.138,0-.276-.024-.415-.037l-.007-.041Z" transform="translate(-22.22 -193.8)" fill="#273850"/>
    <path id="Path_138" data-name="Path 138" d="M1272.9,2882.859l4.435,4.177-4.385,3.268a2.411,2.411,0,0,1-.109-.49q-.01-3.289,0-6.578A2.559,2.559,0,0,1,1272.9,2882.859Z" transform="translate(0 -20.865)" fill="#273850"/>
    <path id="Path_139" data-name="Path 139" d="M1584.039,2890.154l-4.359-3.249,4.438-4.181a3.738,3.738,0,0,1,.057.446c0,2.12,0,4.239,0,6.359A1.246,1.246,0,0,1,1584.039,2890.154Z" transform="translate(-298.955 -20.733)" fill="#273850"/>
  </g>
</svg>
