<svg xmlns="http://www.w3.org/2000/svg" width="12.32" height="13.263" viewBox="0 0 12.32 13.263">
  <g id="Group_179" data-name="Group 179" transform="translate(-1476.036 -3451.847)">
    <path id="Path_134" data-name="Path 134" d="M1482.187,3599.192q-2.139,0-4.279,0a1.807,1.807,0,0,1-1.868-2.006,4.4,4.4,0,0,1,3.648-4.142,10.217,10.217,0,0,1,1.732-.076c.9-.01,1.806-.022,2.707,0a4.44,4.44,0,0,1,4.228,4.405,1.794,1.794,0,0,1-1.816,1.814C1485.089,3599.2,1483.638,3599.192,1482.187,3599.192Z" transform="translate(0 -134.083)" fill="#c9cdd5"/>
    <path id="Path_135" data-name="Path 135" d="M1542.681,3455.021a3.156,3.156,0,1,1-3.1-3.174A3.157,3.157,0,0,1,1542.681,3455.021Z" transform="translate(-57.329)" fill="#c9cdd5"/>
  </g>
</svg>
