<svg xmlns="http://www.w3.org/2000/svg" width="19.063" height="14.459" viewBox="0 0 19.063 14.459">
  <path id="Path_58" data-name="Path 58" d="M-1576.436-1800.144a.536.536,0,0,0-.29-.322.284.284,0,0,0-.352.05c-.143.137-.289.272-.428.413l-7.944,8.1q-1.719,1.752-3.442,3.5c-.244.246-.176.275-.447,0-.5-.51-.991-1.03-1.488-1.544q-1.426-1.477-2.855-2.953a.45.45,0,0,0-.324-.138h0a.452.452,0,0,0-.326.765q1.664,1.731,3.331,3.46c.511.529,1.026,1.054,1.551,1.569.274.269.409.263.683,0,.483-.469.963-.942,1.434-1.423q4.515-4.61,9.025-9.225c.595-.609,1.181-1.226,1.773-1.837A.373.373,0,0,0-1576.436-1800.144Z" transform="translate(1594.971 1801.013)" fill="#10c325" stroke="#10c325" stroke-width="1"/>
</svg>
