<svg xmlns="http://www.w3.org/2000/svg" width="13.611" height="10.085" viewBox="0 0 13.611 10.085">
  <g id="Group_167" data-name="Group 167" transform="translate(1300.696 -851.428)">
    <path id="Path_122" data-name="Path 122" d="M-1293.888,851.433h6.077a.675.675,0,0,1,.713.551.9.9,0,0,1,.012.169q0,4.32,0,8.639a.676.676,0,0,1-.725.72h-12.142a.679.679,0,0,1-.737-.743c0-2.853,0-5.707-.006-8.56a.735.735,0,0,1,.788-.782C-1297.9,851.44-1295.894,851.433-1293.888,851.433Zm6.169,3.932c0-1.039,0-2.052,0-3.065a.255.255,0,0,0-.165-.25.575.575,0,0,0-.21-.028q-5.788,0-11.577-.005a.34.34,0,0,0-.39.386c.006,2.109,0,4.218,0,6.327v.137c.05-.04.079-.062.107-.086q2.068-1.751,4.137-3.5a3.033,3.033,0,0,1,.525-.353,1.026,1.026,0,0,1,1.04.019,4.351,4.351,0,0,1,.4.282,6.769,6.769,0,0,0,.548.4.673.673,0,0,0,.8-.069,1.5,1.5,0,0,0,.182-.169c.473-.514.944-1.032,1.418-1.545a1.711,1.711,0,0,1,.251-.227.708.708,0,0,1,.78-.069,1.741,1.741,0,0,1,.355.24c.567.494,1.128.995,1.692,1.493C-1287.795,855.3-1287.766,855.326-1287.719,855.365Z" transform="translate(0 0)" fill="#575f6b"/>
    <path id="Path_123" data-name="Path 123" d="M-1290.463,861.018a1.119,1.119,0,0,1,1.115,1.119,1.124,1.124,0,0,1-1.123,1.126,1.124,1.124,0,0,1-1.121-1.127A1.12,1.12,0,0,1-1290.463,861.018Z" transform="translate(-7.375 -7.769)" fill="#575f6b"/>
  </g>
</svg>
