<svg xmlns="http://www.w3.org/2000/svg" width="14.62" height="14.635" viewBox="0 0 14.62 14.635">
  <path id="Path_94" data-name="Path 94" d="M-604.756-1750.553v6.027h3.679a1.829,1.829,0,0,1,.19,0,.426.426,0,0,1,.376.412.423.423,0,0,1-.356.428,1.61,1.61,0,0,1-.228.01h-3.942c-.459,0-.584-.127-.584-.59v-6.551c0-.051,0-.1,0-.152a.422.422,0,0,1,.471-.452,7.322,7.322,0,0,1,7.16,6.076,7.317,7.317,0,0,1-5.8,8.42,7.323,7.323,0,0,1-8.609-5.925,7.3,7.3,0,0,1,3.9-7.777.739.739,0,0,1,.341-.085.406.406,0,0,1,.364.339.459.459,0,0,1-.243.474,11.354,11.354,0,0,0-1.4.944,6.21,6.21,0,0,0-2.162,5.6,6.4,6.4,0,0,0,5.443,5.634,6.461,6.461,0,0,0,7.319-5.319,6.435,6.435,0,0,0-4.979-7.369C-604.116-1750.471-604.431-1750.5-604.756-1750.553Z" transform="translate(612.502 1751.416)" fill="#1baae2"/>
</svg>
