<svg xmlns="http://www.w3.org/2000/svg" width="13.965" height="16.464" viewBox="0 0 13.965 16.464">
  <g id="Group_141" data-name="Group 141" transform="translate(0 0)">
    <path id="Path_90" data-name="Path 90" d="M-56.9-1638.467c-1.663,0-3.328-.017-4.991.006a1.946,1.946,0,0,1-1.936-1.594,4.222,4.222,0,0,1-.05-.869c0-1.527,0-3.054,0-4.582a2.344,2.344,0,0,1,.35-1.346,1.788,1.788,0,0,1,1.45-.86c.065,0,.066-.036.066-.084,0-.4.007-.792,0-1.187a6.272,6.272,0,0,1,.5-2.706,5.193,5.193,0,0,1,2.672-2.789,4.557,4.557,0,0,1,4.736.489,5.469,5.469,0,0,1,2.217,3.581,9.04,9.04,0,0,1,.106,1.119.634.634,0,0,1-.072.3.406.406,0,0,1-.375.244.4.4,0,0,1-.391-.229.885.885,0,0,1-.083-.351,4.834,4.834,0,0,0-1.074-3.017,3.936,3.936,0,0,0-2.612-1.5,3.773,3.773,0,0,0-3.093.96,4.627,4.627,0,0,0-1.585,3.38c-.027.569-.007,1.14-.013,1.71,0,.09.05.08.106.08h3.831c1.754,0,3.508.014,5.262-.005a1.919,1.919,0,0,1,1.837,1.31,2.2,2.2,0,0,1,.129.735c0,1.722.008,3.445,0,5.167a2.038,2.038,0,0,1-.868,1.724,1.66,1.66,0,0,1-.989.318H-56.9Zm0-1.026H-51.8a.87.87,0,0,0,.642-.268,1.113,1.113,0,0,0,.305-.827c0-1.289,0-2.577,0-3.866,0-.43.01-.861-.007-1.291a.967.967,0,0,0-.978-.945c-.509.014-1.018,0-1.528,0h-8.621a.9.9,0,0,0-.768.409,1.224,1.224,0,0,0-.189.738c0,1.083,0,2.165,0,3.247,0,.62-.009,1.239.008,1.858a.971.971,0,0,0,.978.946C-60.273-1639.5-58.589-1639.495-56.905-1639.493Z" transform="translate(63.881 1654.925)" fill="#1baae2"/>
    <path id="Path_91" data-name="Path 91" d="M-56.421-1640.26c0-.258,0-.517,0-.776a.1.1,0,0,0-.071-.112,1.554,1.554,0,0,1-.852-1.567,1.6,1.6,0,0,1,.528-1.049,1.289,1.289,0,0,1,1.647-.062,1.6,1.6,0,0,1-.172,2.636.25.25,0,0,0-.151.265c.009.465,0,.931,0,1.4a.853.853,0,0,1-.025.214.46.46,0,0,1-.465.358.479.479,0,0,1-.429-.406,1.032,1.032,0,0,1-.013-.156C-56.422-1639.765-56.421-1640.012-56.421-1640.26Zm.931-2.28a.5.5,0,0,0-.41-.52.469.469,0,0,0-.512.427.508.508,0,0,0,.376.585A.479.479,0,0,0-55.489-1642.54Z" transform="translate(62.936 1653.357)" fill="#1baae2"/>
  </g>
</svg>
