<svg xmlns="http://www.w3.org/2000/svg" width="21.866" height="19.085" viewBox="0 0 21.866 19.085">
  <g id="Group_150" data-name="Group 150" transform="translate(-322.448 1805.178)">
    <path id="Path_105" data-name="Path 105" d="M343.6-1784.048a11.09,11.09,0,0,0,.162-1.368,10.382,10.382,0,0,0-.167-1.342h2.111q4.474,0,8.948,0a1.35,1.35,0,0,1,1.4,1.22,1.354,1.354,0,0,1-1.028,1.467,1.385,1.385,0,0,1-.337.037q-5.475,0-10.951,0A1.322,1.322,0,0,1,343.6-1784.048Z" transform="translate(-11.76 -10.242)" fill="#1baae2"/>
    <path id="Path_106" data-name="Path 106" d="M334.988-1768.7c-.138.009-.235.02-.332.02q-5.347,0-10.694,0a1.37,1.37,0,0,1-1.488-1.349,1.37,1.37,0,0,1,1.465-1.376q5.326-.005,10.651,0h.4A4.27,4.27,0,0,0,334.988-1768.7Z" transform="translate(-0.014 -18.779)" fill="#1baae2"/>
    <path id="Path_107" data-name="Path 107" d="M333.628-1802.107a4.206,4.206,0,0,0,0,2.729H330q-3,0-6.006,0a1.379,1.379,0,0,1-1.524-1.356,1.381,1.381,0,0,1,1.515-1.371q4.621,0,9.243,0Z" transform="translate(-0.014 -1.707)" fill="#1baae2"/>
    <path id="Path_108" data-name="Path 108" d="M352.866-1799.725a2.751,2.751,0,0,1-2.72-2.747,2.761,2.761,0,0,1,2.722-2.706,2.753,2.753,0,0,1,2.738,2.687A2.738,2.738,0,0,1,352.866-1799.725Z" transform="translate(-15.403 0)" fill="#1baae2"/>
    <path id="Path_109" data-name="Path 109" d="M358.682-1771.759a2.76,2.76,0,0,1-2.735,2.738,2.76,2.76,0,0,1-2.73-2.74,2.762,2.762,0,0,1,2.757-2.717A2.76,2.76,0,0,1,358.682-1771.759Z" transform="translate(-17.111 -17.072)" fill="#1baae2"/>
    <path id="Path_110" data-name="Path 110" d="M334.088-1787.082a2.756,2.756,0,0,1-2.671,2.711,2.744,2.744,0,0,1-2.788-2.721,2.735,2.735,0,0,1,2.733-2.73A2.744,2.744,0,0,1,334.088-1787.082Z" transform="translate(-3.437 -8.539)" fill="#1baae2"/>
    <path id="Path_111" data-name="Path 111" d="M364.995-1799.407a4.324,4.324,0,0,0-.016-2.736c.8.081,1.57-.175,2.3.2a1.348,1.348,0,0,1,.644,1.49,1.342,1.342,0,0,1-1.244,1.042C366.138-1799.392,365.6-1799.407,364.995-1799.407Z" transform="translate(-23.651 -1.682)" fill="#1baae2"/>
    <path id="Path_112" data-name="Path 112" d="M368.076-1768.689a4.193,4.193,0,0,0-.015-2.7,1.365,1.365,0,0,1,1.365.585,1.291,1.291,0,0,1,.037,1.483A1.333,1.333,0,0,1,368.076-1768.689Z" transform="translate(-25.365 -18.785)" fill="#1baae2"/>
    <path id="Path_113" data-name="Path 113" d="M324.067-1786.741a4.166,4.166,0,0,0-.021,2.7,1.318,1.318,0,0,1-1.374-.618,1.276,1.276,0,0,1,0-1.444A1.379,1.379,0,0,1,324.067-1786.741Z" transform="translate(0 -10.249)" fill="#1baae2"/>
  </g>
</svg>
