<svg xmlns="http://www.w3.org/2000/svg" width="16.563" height="20.031" viewBox="0 0 16.563 20.031">
  <g id="Group_119" data-name="Group 119" transform="translate(-1183.522 559.609)">
    <path id="Path_65" data-name="Path 65" d="M1196.414-559.593c-.5.544-.945,1.044-1.413,1.519a.63.63,0,0,1-.412.119q-4.031.01-8.062.005c-.926,0-1.322.4-1.322,1.32q0,7.042,0,14.085c0,.9.4,1.305,1.3,1.305h9.905a1.142,1.142,0,0,0,1.311-1.307q0-4.739-.005-9.477a.832.832,0,0,1,.252-.637c.458-.472.9-.964,1.38-1.491a2.778,2.778,0,0,1,.032.276c0,3.839.007,7.679,0,11.518a2.72,2.72,0,0,1-2.772,2.775q-5.15.013-10.3,0a2.746,2.746,0,0,1-2.783-2.839c-.009-2.029,0-4.059,0-6.088q0-4.113,0-8.227a2.76,2.76,0,0,1,2.263-2.826,2.546,2.546,0,0,1,.49-.043q4.937,0,9.872,0C1196.215-559.608,1196.279-559.6,1196.414-559.593Z" transform="translate(0)" fill="#919191"/>
    <path id="Path_66" data-name="Path 66" d="M1338.2-521.261l-2.695,2.99-2.36-2.114,2.7-2.99Z" transform="translate(-139.754 -33.844)" fill="#919191"/>
    <path id="Path_67" data-name="Path 67" d="M1254.129-350h-6.786v-1.264h6.786Z" transform="translate(-59.611 -194.604)" fill="#919191"/>
    <path id="Path_68" data-name="Path 68" d="M1252.126-401.49v1.143h-4.748v-1.143Z" transform="translate(-59.644 -147.69)" fill="#919191"/>
    <path id="Path_69" data-name="Path 69" d="M1391.6-547.614l-.68.754-2.359-2.126.68-.754Z" transform="translate(-191.512 -9.218)" fill="#919191"/>
    <path id="Path_70" data-name="Path 70" d="M1316.78-459.775l1.929,1.593-2.342.878Z" transform="translate(-124.083 -93.249)" fill="#919191"/>
  </g>
</svg>
