<svg xmlns="http://www.w3.org/2000/svg" width="19.067" height="24.54" viewBox="0 0 19.067 24.54">
  <g id="Group_149" data-name="Group 149" transform="translate(-272.966 1802.965)">
    <path id="Path_103" data-name="Path 103" d="M282.483-1782.217q-4.125,0-8.251,0a1.244,1.244,0,0,1-1.133-1.8,1.578,1.578,0,0,1,.293-.39c.451-.463.907-.923,1.372-1.372a.591.591,0,0,0,.2-.469q-.011-2.985,0-5.971a9.138,9.138,0,0,1,1.1-4.553,6.837,6.837,0,0,1,4.345-3.389.241.241,0,0,0,.216-.286,6.585,6.585,0,0,1,.017-.834,1.859,1.859,0,0,1,1.978-1.679,1.869,1.869,0,0,1,1.761,1.808c.007.246.01.492,0,.737a.2.2,0,0,0,.175.237,7.22,7.22,0,0,1,5.313,6.062,10.965,10.965,0,0,1,.164,2c.021,1.958.01,3.915,0,5.873a.541.541,0,0,0,.175.43c.5.492,1.011.982,1.489,1.5a1.25,1.25,0,0,1-.65,2.068,1.894,1.894,0,0,1-.414.028Q286.559-1782.216,282.483-1782.217Z" transform="translate(0 0)" fill="#1baae2"/>
    <path id="Path_104" data-name="Path 104" d="M285.114-1764.881h5.021a2.467,2.467,0,0,1-1.246,2.136,2.38,2.38,0,0,1-2.644-.065A2.427,2.427,0,0,1,285.114-1764.881Z" transform="translate(-5.119 -16.049)" fill="#1baae2"/>
  </g>
</svg>
