<svg xmlns="http://www.w3.org/2000/svg" width="11.046" height="13.263" viewBox="0 0 11.046 13.263">
  <path id="Path_133" data-name="Path 133" d="M1130.539,3451.847h.57a.205.205,0,0,0,.056.021,3.765,3.765,0,0,1,1.09.255,3.861,3.861,0,0,1,2.434,3.587.519.519,0,0,1-.544.56q-.285.008-.57,0a.493.493,0,0,1-.485-.3.971.971,0,0,1-.058-.328,2.224,2.224,0,0,0-2.979-2,2.316,2.316,0,0,0-1.428,2.036c-.013.539-.005,1.079-.006,1.619a.513.513,0,0,0,.014.082h.184q3.165,0,6.33,0a1.589,1.589,0,0,1,.322.025,1.1,1.1,0,0,1,.876,1.1q0,1.916,0,3.833a2.922,2.922,0,0,1-.012.31,2.729,2.729,0,0,1-2.746,2.462c-1.842,0-3.685,0-5.528,0a2.948,2.948,0,0,1-.678-.081,2.679,2.679,0,0,1-2.068-2.5c-.022-1.359-.012-2.719-.006-4.079a1.062,1.062,0,0,1,.828-1.029,4.2,4.2,0,0,1,.656-.042l.169-.011v-.156c0-.492,0-.984,0-1.476a3.9,3.9,0,0,1,2.959-3.766C1130.124,3451.918,1130.333,3451.887,1130.539,3451.847Zm.286,7.741a1.121,1.121,0,0,0-1.057.785,1.1,1.1,0,0,0,.432,1.219.19.19,0,0,1,.072.132c.008.2,0,.4,0,.595a.55.55,0,1,0,1.1,0c0-.2,0-.4,0-.595a.18.18,0,0,1,.063-.124,1.091,1.091,0,0,0,.438-1.237A1.124,1.124,0,0,0,1130.825,3459.588Z" transform="translate(-1125.301 -3451.847)" fill="#273850" opacity="0.2"/>
</svg>
