<svg xmlns="http://www.w3.org/2000/svg" width="11.085" height="11.074" viewBox="0 0 11.085 11.074">
  <g id="Group_156" data-name="Group 156" transform="translate(2705.08 2098.093)">
    <path id="Path_114" data-name="Path 114" d="M-2705.079-2033.393a1.438,1.438,0,0,1,.506-1.145c.257-.234.494-.489.741-.734a.913.913,0,0,1,.468-.267.773.773,0,0,1,.719.221c.47.458.938.919,1.391,1.394a.784.784,0,0,1-.02,1.165c-.262.273-.534.536-.8.8-.095.095-.1.113-.046.236a5.341,5.341,0,0,0,.891,1.339,8,8,0,0,0,1.8,1.595c.189.119.395.212.593.317.074.039.121-.006.168-.053.268-.268.534-.537.8-.8a.835.835,0,0,1,.67-.274.8.8,0,0,1,.509.235c.468.46.938.919,1.393,1.392a.8.8,0,0,1-.028,1.18c-.167.174-.344.338-.515.509-.076.075-.151.151-.221.231a1.5,1.5,0,0,1-1.268.518,4.734,4.734,0,0,1-1.734-.438,10.947,10.947,0,0,1-4.155-3.232,9.617,9.617,0,0,1-1.644-2.924A3.765,3.765,0,0,1-2705.079-2033.393Z" transform="translate(0 -61.485)" fill="#1baae2"/>
    <path id="Path_115" data-name="Path 115" d="M-2369.57-2092.86l-.918.156a5.331,5.331,0,0,0-1.571-2.991,5.345,5.345,0,0,0-3.043-1.476c.043-.31.086-.616.129-.922A6.3,6.3,0,0,1-2369.57-2092.86Z" transform="translate(-324.425)" fill="#1baae2"/>
    <path id="Path_116" data-name="Path 116" d="M-2378.29-1964.121l-.91.155a2.938,2.938,0,0,0-2.506-2.427c.042-.3.084-.6.127-.906A3.8,3.8,0,0,1-2378.29-1964.121Z" transform="translate(-317.933 -128.593)" fill="#1baae2"/>
  </g>
</svg>
