<svg xmlns="http://www.w3.org/2000/svg" width="20.846" height="20" viewBox="0 0 20.846 20">
  <g id="Group_94" data-name="Group 94" transform="translate(439.564 1466.865)">
    <path id="Path_59" data-name="Path 59" d="M-421.684-1466.615c.141.039.284.073.423.119a2.112,2.112,0,0,1,1.448,2.01c.009.992,0,1.984,0,2.977v6.343c-.29-.2-.563-.388-.822-.589-.041-.032-.024-.147-.024-.223q0-4.2,0-8.391a1.35,1.35,0,0,0-.418-1.054,1.355,1.355,0,0,0-.969-.341q-4.888,0-9.775,0h-5.228a1.294,1.294,0,0,0-1.42,1.428q0,4.934,0,9.868a1.291,1.291,0,0,0,1.425,1.421c.617,0,1.235,0,1.852,0,.37,0,.507.122.559.487a3.844,3.844,0,0,1-.442,2.711c.1-.026.167-.036.226-.057a4.376,4.376,0,0,0,2.66-2.6c.223-.532.228-.54.809-.54h3.367l-.218.85h-.261c-.9,0-1.8,0-2.7,0a.276.276,0,0,0-.3.194,5.081,5.081,0,0,1-4.05,3.135,6.168,6.168,0,0,1-.723.062.429.429,0,0,1-.491-.306.424.424,0,0,1,.229-.51,2.4,2.4,0,0,0,1.076-2.555c-.085-.005-.167-.015-.249-.016-.531,0-1.064.015-1.593-.015a2.082,2.082,0,0,1-1.991-1.733.726.726,0,0,0-.041-.108v-10.736c.017-.05.038-.1.05-.149a2.09,2.09,0,0,1,1.23-1.491,5.444,5.444,0,0,1,.6-.189Z" transform="translate(0 0)" fill="#919191" stroke="#919191" stroke-width="0.5"/>
    <path id="Path_60" data-name="Path 60" d="M-178.172-1227.685a4.232,4.232,0,0,1-4.238,4.226,4.235,4.235,0,0,1-4.233-4.232,4.235,4.235,0,0,1,4.251-4.238A4.233,4.233,0,0,1-178.172-1227.685Zm-.846-.005a3.387,3.387,0,0,0-3.38-3.391,3.388,3.388,0,0,0-3.4,3.4,3.389,3.389,0,0,0,3.392,3.38A3.389,3.389,0,0,0-179.018-1227.69Z" transform="translate(-240.796 -223.657)" fill="#919191" stroke="#919191" stroke-width="0.5"/>
    <path id="Path_61" data-name="Path 61" d="M-147.067-1193.189h1.118c.18,0,.359,0,.539,0a.392.392,0,0,1,.432.392.394.394,0,0,1-.416.436c-.359.014-.718.005-1.077.006h-.6c0,.141,0,.262,0,.383,0,.414.006.827,0,1.241-.006.309-.169.473-.436.466s-.395-.169-.4-.475c0-.445,0-.89,0-1.335v-.281h-.443c-.421,0-.843.007-1.264-.008a.391.391,0,0,1-.39-.435.39.39,0,0,1,.412-.389c.484-.008.968-.011,1.452,0,.183,0,.243-.047.238-.235-.013-.46-.007-.921,0-1.381,0-.316.15-.485.412-.487s.418.169.423.481c.006.445,0,.89,0,1.335Z" transform="translate(-275.715 -258.576)" fill="#919191"/>
  </g>
</svg>
