<svg xmlns="http://www.w3.org/2000/svg" width="18.295" height="18.298" viewBox="0 0 18.295 18.298">
  <g id="Group_45" data-name="Group 45" transform="translate(-12.487 827.825)">
    <path id="Path_19" data-name="Path 19" d="M22.992-827.825a.609.609,0,0,1,.262.4c.153.648.324,1.292.481,1.939a.245.245,0,0,0,.173.2c.261.1.52.2.774.318a.272.272,0,0,0,.292-.011c.573-.352,1.151-.7,1.727-1.041a.4.4,0,0,1,.6.075q.8.8,1.6,1.6a.4.4,0,0,1,.075.6c-.342.572-.682,1.145-1.03,1.713a.282.282,0,0,0-.021.308c.117.246.219.5.314.757a.256.256,0,0,0,.2.189c.659.158,1.315.327,1.972.492.284.071.365.172.365.461q0,1.152,0,2.3c0,.278-.085.383-.356.451-.657.165-1.313.334-1.972.491a.269.269,0,0,0-.214.2,7.847,7.847,0,0,1-.308.74.293.293,0,0,0,.021.324c.349.568.689,1.141,1.031,1.712a.394.394,0,0,1-.073.586q-.807.81-1.616,1.617a.394.394,0,0,1-.586.074c-.577-.345-1.154-.689-1.727-1.04a.271.271,0,0,0-.292-.021c-.258.12-.529.214-.787.333a.317.317,0,0,0-.157.18c-.174.661-.337,1.325-.5,1.988-.068.272-.174.356-.451.357H20.469a.381.381,0,0,1-.44-.347c-.166-.663-.336-1.325-.495-1.99a.256.256,0,0,0-.189-.2c-.256-.095-.509-.2-.757-.313a.271.271,0,0,0-.292.011c-.578.354-1.161.7-1.743,1.049a.387.387,0,0,1-.571-.072q-.815-.814-1.629-1.63a.387.387,0,0,1-.072-.571c.348-.582.695-1.165,1.049-1.743a.272.272,0,0,0,.011-.292q-.171-.372-.313-.757a.256.256,0,0,0-.2-.189c-.647-.156-1.29-.328-1.938-.481a.608.608,0,0,1-.4-.262v-2.716a.606.606,0,0,1,.4-.262c.648-.153,1.291-.325,1.938-.481a.256.256,0,0,0,.2-.19q.142-.384.313-.757a.272.272,0,0,0-.011-.292c-.352-.573-.695-1.151-1.04-1.728a.4.4,0,0,1,.076-.6l1.6-1.6a.4.4,0,0,1,.6-.076c.577.345,1.154.69,1.728,1.039a.256.256,0,0,0,.276.021c.258-.121.523-.226.79-.327a.245.245,0,0,0,.172-.2c.157-.647.328-1.291.481-1.939a.607.607,0,0,1,.262-.4Zm-2.319,17.577h1.915c.016-.053.033-.1.046-.153.156-.623.317-1.244.464-1.87a.515.515,0,0,1,.373-.4,9.717,9.717,0,0,0,1.07-.439.562.562,0,0,1,.614.017c.579.362,1.169.706,1.735,1.046l1.374-1.361c-.356-.594-.715-1.2-1.08-1.8a.488.488,0,0,1-.016-.5c.172-.378.329-.763.474-1.152a.482.482,0,0,1,.369-.343c.353-.08.7-.171,1.056-.258.332-.083.664-.168.994-.252v-1.916c-.054-.016-.1-.032-.155-.045-.628-.157-1.256-.317-1.886-.467a.487.487,0,0,1-.38-.354,4.384,4.384,0,0,0-.36-.909.811.811,0,0,1,.052-.993c.337-.5.628-1.034.927-1.533L26.89-825.3c-.582.349-1.181.7-1.774,1.066a.5.5,0,0,1-.519.023c-.377-.173-.763-.329-1.152-.474a.482.482,0,0,1-.341-.371c-.068-.3-.146-.6-.221-.9-.1-.384-.193-.767-.289-1.146H20.672c-.169.678-.342,1.352-.5,2.028a.512.512,0,0,1-.361.4c-.39.143-.774.3-1.152.475a.471.471,0,0,1-.487-.02c-.385-.237-.774-.468-1.161-.7l-.621-.37-1.373,1.37c.351.585.711,1.188,1.075,1.788a.444.444,0,0,1,.039.439q-.271.63-.525,1.266a.392.392,0,0,1-.286.265c-.081.019-.161.042-.242.062l-1.865.469v1.922c.681.17,1.355.343,2.031.5a.508.508,0,0,1,.391.366,10.791,10.791,0,0,0,.446,1.086.554.554,0,0,1-.021.6c-.36.58-.706,1.17-1.039,1.724L16.4-812.06c.58-.348,1.183-.708,1.782-1.073a.461.461,0,0,1,.471-.019c.379.171.761.335,1.151.476a.521.521,0,0,1,.372.407C20.33-811.6,20.5-810.93,20.673-810.248Z" transform="translate(0 0)" fill="#919191"/>
    <path id="Path_20" data-name="Path 20" d="M137.038-708.482a4.89,4.89,0,0,1,4.842,4.4,4.838,4.838,0,0,1-.279,2.176c-.05.136-.123.266-.274.271a.568.568,0,0,1-.338-.1c-.125-.095-.108-.247-.07-.4a8.437,8.437,0,0,0,.242-1.039A4.14,4.14,0,0,0,138-707.64a4.153,4.153,0,0,0-5.056,3.416,4.157,4.157,0,0,0,3.63,4.735,4.18,4.18,0,0,0,2.338-.417c.308-.151.6.013.572.32a.371.371,0,0,1-.235.31,4.788,4.788,0,0,1-2.485.522,4.859,4.859,0,0,1-4.409-3.584,4.86,4.86,0,0,1,3.9-6.059C136.516-708.438,136.778-708.454,137.038-708.482Z" transform="translate(-115.413 -115.071)" fill="#919191"/>
    <path id="Path_21" data-name="Path 21" d="M352.235-497.64a.36.36,0,0,1-.353-.367.36.36,0,0,1,.358-.345.36.36,0,0,1,.354.367A.36.36,0,0,1,352.235-497.64Z" transform="translate(-327.244 -317.678)" fill="#919191"/>
  </g>
</svg>
