<svg xmlns="http://www.w3.org/2000/svg" width="17.25" height="17.252" viewBox="0 0 17.25 17.252">
  <path id="Path_57" data-name="Path 57" d="M-1328.155-993.644c0-1.036,0-2.046,0-3.055a1.768,1.768,0,0,1,.007-.256.461.461,0,0,1,.729-.312,1.247,1.247,0,0,1,.155.141l6.1,6.1c.319.319.32.539.006.853q-3.055,3.056-6.11,6.113a.509.509,0,0,1-.6.184.516.516,0,0,1-.289-.557c.005-.94,0-1.88,0-2.82v-.32c-.588.093-1.154.137-1.7.276a9.427,9.427,0,0,0-7.021,6.664c-.016.052-.029.1-.045.156a.46.46,0,0,1-.467.376.443.443,0,0,1-.452-.394,18.953,18.953,0,0,1-.321-2.138,9.915,9.915,0,0,1,1.5-5.96,10.323,10.323,0,0,1,7.876-4.99C-1328.581-993.608-1328.381-993.623-1328.155-993.644Zm-9.061,11.142.045,0c.112-.212.218-.427.338-.635a10.363,10.363,0,0,1,6.053-4.874,9.817,9.817,0,0,1,2.993-.454c.419,0,.562.141.563.556s0,.854,0,1.282v1.141l5.1-5.08-5.1-5.107v.2c0,.746,0,1.491,0,2.237a.472.472,0,0,1-.514.528c-.07,0-.14,0-.21,0a9.3,9.3,0,0,0-6.778,3.092,9.415,9.415,0,0,0-2.511,6.863C-1337.235-982.667-1337.223-982.585-1337.216-982.5Z" transform="translate(1338.175 997.356)" fill="#00aae2"/>
</svg>
