<svg id="Group_142" data-name="Group 142" xmlns="http://www.w3.org/2000/svg" width="14.62" height="14.612" viewBox="0 0 14.62 14.612">
  <path id="Path_92" data-name="Path 92" d="M37.706-1509.483a7.307,7.307,0,0,1-7.316-7.3,7.3,7.3,0,0,1,7.291-7.307,7.31,7.31,0,0,1,7.329,7.313A7.313,7.313,0,0,1,37.706-1509.483Zm6.505-7.312a6.51,6.51,0,0,0-6.508-6.5,6.514,6.514,0,0,0-6.52,6.516,6.517,6.517,0,0,0,6.531,6.505A6.513,6.513,0,0,0,44.212-1516.8Z" transform="translate(-30.39 1524.095)" fill="#1baae2"/>
  <path id="Path_93" data-name="Path 93" d="M39.93-1520.636c0-.306.141-.479.387-.482s.405.175.4.488c0,1.422-.005,2.843-.014,4.265a.323.323,0,0,0,.169.316c.8.507,1.6,1.024,2.4,1.538.052.033.106.066.156.1a.4.4,0,0,1,.125.545.4.4,0,0,1-.563.115c-.467-.293-.929-.6-1.393-.893-.494-.316-.987-.633-1.482-.945A.448.448,0,0,1,39.9-1516C39.9-1516.786,39.929-1519.877,39.93-1520.636Z" transform="translate(-33.016 1523.273)" fill="#1baae2"/>
</svg>
