<svg xmlns="http://www.w3.org/2000/svg" width="15.947" height="11.956" viewBox="0 0 15.947 11.956">
  <g id="Group_143" data-name="Group 143" transform="translate(0.1 0.1)">
    <path id="Path_95" data-name="Path 95" d="M85.314-1712.605c-.21-.05-.423-.09-.629-.152-.768-.231-1.535-.463-2.3-.707-1.852-.59-3.7-1.193-5.552-1.774a3.654,3.654,0,0,1-1.572-1.054,7.286,7.286,0,0,1-.892-1.194,17.349,17.349,0,0,1-.987-1.753,4.311,4.311,0,0,1-.387-1.177c-.007-.047-.016-.094-.024-.141v-.354c.013-.067.025-.135.04-.2a2.05,2.05,0,0,1,.683-1.081,6.642,6.642,0,0,1,1.358-.908c.689-.368,1.4-.7,2.118-1a3.752,3.752,0,0,1,1.778-.246,5.12,5.12,0,0,1,1.125.281q2.7.85,5.389,1.709c.792.253,1.581.514,2.372.77a1.255,1.255,0,0,1,.759.716,1.47,1.47,0,0,1,.039,1.1c-.345,1.1-.682,2.2-1.028,3.3-.3.946-.6,1.889-.905,2.833a1.435,1.435,0,0,1-.94.948c-.087.031-.178.055-.267.082Zm-11.871-8.164a2.007,2.007,0,0,0,.214.987,14.877,14.877,0,0,0,.944,1.732,9.71,9.71,0,0,0,1.034,1.429,2.865,2.865,0,0,0,1.277.869c.481.154.956.326,1.438.48q2.605.831,5.213,1.654c.545.172,1.1.329,1.645.489a.809.809,0,0,0,.962-.533c.533-1.67,1.072-3.339,1.6-5.01.16-.507.309-1.018.441-1.533a.781.781,0,0,0-.521-.914q-.963-.318-1.931-.623c-2.1-.659-4.2-1.306-6.29-1.975a2.952,2.952,0,0,0-2.189.113c-.733.332-1.46.677-2.183,1.03a4.3,4.3,0,0,0-1.138.759A1.284,1.284,0,0,0,73.442-1720.77Z" transform="translate(-72.971 1724.362)" fill="#1baae2" stroke="#1baae2" stroke-width="0.2"/>
    <path id="Path_96" data-name="Path 96" d="M96.752-1708.7c-.139-.044-.266-.084-.392-.126-.044-.014-.063,0-.076.044-.026.079-.049.159-.082.235a1.147,1.147,0,0,1-.118.226.2.2,0,0,1-.246.059.246.246,0,0,1-.153-.255c.029-.13.064-.259.1-.388.018-.062.006-.095-.062-.116-.452-.14-.9-.287-1.353-.427-.248-.077-.5-.144-.747-.218a.087.087,0,0,0-.12.047,1.762,1.762,0,0,1-2.348.677,1.766,1.766,0,0,1-.906-1.57,1.761,1.761,0,0,1,1.852-1.692,1.7,1.7,0,0,1,1.559,1.368,4.52,4.52,0,0,1,.063.581.093.093,0,0,0,.076.1q1.739.552,3.476,1.108c.175.056.348.121.521.185a.194.194,0,0,1,.124.232c-.015.117-.073.193-.179.191a1.657,1.657,0,0,1-.353-.053c-.145-.036-.15-.044-.2.1-.1.283-.185.569-.278.854-.024.073-.051.146-.081.218a.209.209,0,0,1-.285.131.219.219,0,0,1-.153-.283c.055-.207.114-.412.175-.617S96.688-1708.493,96.752-1708.7Zm-4.8-3a1.224,1.224,0,0,0-1.227,1.259,1.261,1.261,0,0,0,1.29,1.225,1.26,1.26,0,0,0,1.213-1.266A1.222,1.222,0,0,0,91.955-1711.706Z" transform="translate(-85.63 1715.46)" fill="#1baae2" stroke="#1baae2" stroke-width="0.2"/>
    <path id="Path_97" data-name="Path 97" d="M80.581-1713.515a.92.92,0,0,1,.906.965.946.946,0,0,1-.991.906.928.928,0,0,1-.854-.974A.971.971,0,0,1,80.581-1713.515Zm.009,1.387c.289.007.407-.266.414-.488a.423.423,0,0,0-.46-.412c-.249,0-.409.208-.417.511C80.12-1712.3,80.41-1712.117,80.59-1712.128Z" transform="translate(-77.858 1716.415)" fill="#1baae2" stroke="#1baae2" stroke-width="0.2"/>
  </g>
</svg>
