<svg xmlns="http://www.w3.org/2000/svg" width="19.25" height="19.226" viewBox="0 0 19.25 19.226">
  <g id="Group_123" data-name="Group 123" transform="translate(-1041.753 2588.574)">
    <path id="Path_75" data-name="Path 75" d="M1051.464-2588.573c.326,0,.651,0,.977,0a.742.742,0,0,1,.78.771c.008.345,0,.69,0,1.035,0,.273.07.339.322.438.543.214,1.082.439,1.617.673a.4.4,0,0,0,.543-.085c.282-.28.56-.563.843-.842a.742.742,0,0,1,1.11,0q.686.68,1.367,1.367a.727.727,0,0,1-.007,1.118c-.275.278-.548.556-.83.827a.34.34,0,0,0-.064.471,7.488,7.488,0,0,1,.8,1.9c.066.237.156.3.409.3.306,0,.612,0,.918,0a.712.712,0,0,1,.751.747q.005.967,0,1.934a.753.753,0,0,1-.794.8c-.306,0-.612,0-.918,0a.384.384,0,0,0-.388.29q-.335.861-.693,1.713a.391.391,0,0,0,.083.511c.2.2.407.4.607.608a.726.726,0,0,1,0,1.118q-.667.672-1.339,1.34a.727.727,0,0,1-1.131-.006q-.278-.275-.552-.553a.343.343,0,0,0-.459-.065,8.9,8.9,0,0,1-1.934.821.34.34,0,0,0-.264.362c0,.273,0,.547,0,.82a.76.76,0,0,1-.808.807q-.957,0-1.914,0a.751.751,0,0,1-.8-.793c-.005-.254,0-.508,0-.762a.373.373,0,0,0-.3-.4,8.313,8.313,0,0,1-2-.85.349.349,0,0,0-.475.062q-.363.368-.732.731a.747.747,0,0,1-1.137,0q-.679-.675-1.353-1.354a.742.742,0,0,1,0-1.11c.255-.26.516-.515.772-.774.193-.195.187-.273.081-.518-.24-.553-.468-1.112-.687-1.673-.086-.22-.157-.3-.395-.3-.293,0-.586,0-.879,0a.763.763,0,0,1-.83-.824q0-.938,0-1.875a.753.753,0,0,1,.81-.82c.3,0,.6,0,.9,0a.36.36,0,0,0,.417-.325,7.8,7.8,0,0,1,.8-1.9.353.353,0,0,0-.067-.521c-.288-.292-.581-.579-.869-.871a.727.727,0,0,1,0-1.13q.668-.672,1.339-1.34a.748.748,0,0,1,1.151,0c.306.3.607.608.912.91.187.185.278.183.522.082q.862-.359,1.735-.691c.221-.085.292-.154.3-.4,0-.319,0-.638,0-.957a.748.748,0,0,1,.827-.819Zm-.129,15.083a5.469,5.469,0,0,0,5.487-5.445,5.467,5.467,0,0,0-5.429-5.482,5.467,5.467,0,0,0-5.5,5.435A5.469,5.469,0,0,0,1051.335-2573.49Z" fill="#00aae2"/>
    <path id="Path_76" data-name="Path 76" d="M1232.746-2449.582a2.328,2.328,0,0,1,2.3,2.341,2.336,2.336,0,0,1-2.327,2.3,2.339,2.339,0,0,1-2.316-2.335A2.333,2.333,0,0,1,1232.746-2449.582Zm-1.71,1.909a.818.818,0,0,0-.041.128,1.693,1.693,0,0,0,.739,1.731,1.662,1.662,0,0,0,1.878.066,1.682,1.682,0,0,0,.867-1.669c-.024-.367-.155-.5-.516-.572a1.41,1.41,0,0,0-.961.233,3.073,3.073,0,0,1-.717.284A2.049,2.049,0,0,1,1231.036-2447.672Z" transform="translate(-181.271 -133.553)" fill="#00aae2"/>
    <path id="Path_77" data-name="Path 77" d="M1193.431-2314a5.234,5.234,0,0,1-2.849-1.454.216.216,0,0,1-.073-.13,6.207,6.207,0,0,1,.039-1.049,1.824,1.824,0,0,1,1.721-1.442c.085,0,.16-.017.19.106C1192.778-2316.65,1193.1-2315.339,1193.431-2314Z" transform="translate(-142.932 -259.917)" fill="#00aae2"/>
    <path id="Path_78" data-name="Path 78" d="M1314.3-2313.689l.9-4.02a1.855,1.855,0,0,1,1.617.853,2.129,2.129,0,0,1,.3,1.229.8.8,0,0,1-.308.666A5.373,5.373,0,0,1,1314.3-2313.689Zm1.171-2.212h.84v-.253h-.84Z" transform="translate(-261.885 -260.265)" fill="#00aae2"/>
    <path id="Path_79" data-name="Path 79" d="M1275.951-2315.713c.065-.3.121-.588.194-.875a.308.308,0,0,0-.085-.33c-.084-.085-.21-.2-.2-.291a1.835,1.835,0,0,1,.178-.51.124.124,0,0,1,.095-.05c.182,0,.364-.006.545,0a.135.135,0,0,1,.1.068c.064.149.121.3.171.455a.166.166,0,0,1-.023.12.806.806,0,0,1-.133.167.36.36,0,0,0-.1.466c.076.15.018.246-.113.336-.2.136-.383.289-.574.435C1275.993-2315.715,1275.978-2315.717,1275.951-2315.713Z" transform="translate(-224.942 -260.203)" fill="#00aae2"/>
    <path id="Path_80" data-name="Path 80" d="M1276.14-2247.588c.056.231.106.425.148.62a.16.16,0,0,1-.031.122c-.22.246-.445.487-.673.733l-.62-.577Z" transform="translate(-224.084 -327.642)" fill="#00aae2"/>
    <path id="Path_81" data-name="Path 81" d="M1272.36-2271.06c.045.185.091.346.12.511a.182.182,0,0,1-.06.145c-.385.3-.776.588-1.182.87.094-.366.042-.783.455-1.021A6.558,6.558,0,0,0,1272.36-2271.06Z" transform="translate(-220.505 -305.088)" fill="#00aae2"/>
  </g>
</svg>
