<svg xmlns="http://www.w3.org/2000/svg" width="18.787" height="18.298" viewBox="0 0 18.787 18.298">
  <path id="Path_28" data-name="Path 28" d="M893.488-244.944a9.526,9.526,0,0,1,1.151.255,4.419,4.419,0,0,1,3.007,4.486,7.43,7.43,0,0,1-1.272,3.971,4.459,4.459,0,0,1-2.051,1.723,3.089,3.089,0,0,1-2.927-.336,5.446,5.446,0,0,1-2.093-2.716,7.168,7.168,0,0,1-.513-3.322,13.021,13.021,0,0,1,.287-1.412,2.715,2.715,0,0,0-2.419-.078,2.727,2.727,0,0,0-1.73,2.587,4.961,4.961,0,0,0,1.1,3.328,5.45,5.45,0,0,0,.87.757.426.426,0,0,1,.165.58.4.4,0,0,1-.591.1c-.079-.048-.154-.1-.237-.147a.281.281,0,0,0-.169-.047,9.62,9.62,0,0,0-2.125.728,3.4,3.4,0,0,0-1.706,2.163c-.219.742-.425,1.488-.633,2.234-.065.233-.01.317.217.317,1.07,0,2.14,0,3.237,0,.084-.287.174-.571.252-.859a5.016,5.016,0,0,1,1.728-2.715,4.741,4.741,0,0,1,2.135-.968.92.92,0,0,1,.771.242,9.272,9.272,0,0,0,.885.708,2.774,2.774,0,0,0,1.346.4,8.751,8.751,0,0,0,2.568-.1,2.571,2.571,0,0,0,1.381-.765,1.308,1.308,0,0,1,1.552-.37,5.283,5.283,0,0,1,1.693.9c.229.189.282.415.134.6a.41.41,0,0,1-.617.008,4.382,4.382,0,0,0-1.6-.819.382.382,0,0,0-.439.109,3.964,3.964,0,0,1-2.976,1.252,9.409,9.409,0,0,1-2.362-.128,3.451,3.451,0,0,1-1.86-1.027.583.583,0,0,0-.7-.166,4.041,4.041,0,0,0-2.823,2.892q-.379,1.3-.754,2.61c-.116.4-.01.542.42.542h7.934a1.852,1.852,0,0,1,.324.021.374.374,0,0,1,.32.394.371.371,0,0,1-.335.36,1.36,1.36,0,0,1-.185.011q-4.06,0-8.12,0a1.107,1.107,0,0,1-1.181-.844,1.806,1.806,0,0,1,.039-.683c.051-.263.146-.518.233-.812h-.273c-.907,0-1.815,0-2.722,0a.954.954,0,0,1-.985-1.241c.255-.948.508-1.9.838-2.824a4.08,4.08,0,0,1,2.627-2.487c.363-.131.736-.239,1.12-.363-.029-.047-.055-.1-.09-.146a5.908,5.908,0,0,1-1.183-3.992,3.638,3.638,0,0,1,4.282-3.29c.368.074.723.209,1.069.312.286-.289.56-.607.876-.877a4.2,4.2,0,0,1,2.472-1.012.691.691,0,0,0,.131-.036Zm-3.95,4.8c.032.28.05.535.091.787a6.042,6.042,0,0,0,1.55,3.314,2.821,2.821,0,0,0,1.833.956,2.712,2.712,0,0,0,2.271-1.014,6.264,6.264,0,0,0,1.562-3.914c.02-.266,0-.534,0-.816a2.669,2.669,0,0,1-2.212-.592,8.47,8.47,0,0,1-.758.649,4.922,4.922,0,0,1-2.95.73C890.474-240.052,890.022-240.106,889.539-240.142Zm.055-.82a6.706,6.706,0,0,0,2.547.048,2.625,2.625,0,0,0,2.06-1.371.362.362,0,0,1,.6-.067c.13.12.239.267.377.377a1.761,1.761,0,0,0,1.5.386,3.66,3.66,0,0,0-3.658-2.55A3.664,3.664,0,0,0,889.594-240.963Z" transform="translate(-880.792 244.944)" fill="#919191"/>
</svg>
