<svg xmlns="http://www.w3.org/2000/svg" width="11.076" height="10.784" viewBox="0 0 11.076 10.784">
  <g id="Group_173" data-name="Group 173" transform="translate(1357.352 -927.74)">
    <path id="Path_128" data-name="Path 128" d="M-1349.706,977.734h-4.87v.683h4.841c0,.046,0,.084,0,.121q0,2.022,0,4.044a.679.679,0,0,1-.684.688h-6.25a.678.678,0,0,1-.679-.681q0-2.433,0-4.866a.675.675,0,0,1,.645-.682c.274-.011.548,0,.822,0q2.7,0,5.407,0a.681.681,0,0,1,.643.34A2.185,2.185,0,0,1-1349.706,977.734Zm-4.879,3.459a.694.694,0,0,0-.686-.691.694.694,0,0,0-.691.685.691.691,0,0,0,.68.695A.692.692,0,0,0-1354.585,981.193Z" transform="translate(-0.001 -45.143)" fill="#575f6b"/>
    <path id="Path_129" data-name="Path 129" d="M-1255.989,975.929v3.114c0,.011,0,.022,0,.033a.345.345,0,0,1-.154.325.322.322,0,0,1-.355-.054c-.266-.192-.527-.39-.789-.587-.286-.214-.573-.425-.856-.642a1.482,1.482,0,0,1-.614-1.227c0-.674-.01-1.348,0-2.022a1.378,1.378,0,0,1,.541-1.087c.534-.422,1.086-.821,1.632-1.228a.88.88,0,0,1,.214-.122.253.253,0,0,1,.354.18.648.648,0,0,1,.024.181q0,1.568,0,3.136Z" transform="translate(-90.287 -40.909)" fill="#575f6b"/>
    <path id="Path_130" data-name="Path 130" d="M-1310.449,927.74a1.745,1.745,0,0,1,1.737,1.675,1.742,1.742,0,0,1-1.684,1.792,1.736,1.736,0,0,1-1.784-1.679A1.735,1.735,0,0,1-1310.449,927.74Z" transform="translate(-41.368)" fill="#575f6b"/>
    <path id="Path_131" data-name="Path 131" d="M-1354.583,937.365a1.376,1.376,0,0,1-1.411,1.381,1.379,1.379,0,0,1-1.358-1.38,1.379,1.379,0,0,1,1.39-1.393A1.376,1.376,0,0,1-1354.583,937.365Z" transform="translate(0 -7.541)" fill="#575f6b"/>
  </g>
</svg>
