<svg xmlns="http://www.w3.org/2000/svg" width="14.063" height="14.23" viewBox="0 0 14.063 14.23">
  <g id="Group_144" data-name="Group 144" transform="translate(0.156 0.15)">
    <path id="Path_98" data-name="Path 98" d="M14.636-1721.874a6.482,6.482,0,0,1-1.626,4.193,6.468,6.468,0,0,1-3.988,2.212,6.884,6.884,0,0,1-4.758-.963.161.161,0,0,0-.126-.007q-1.452.612-2.9,1.229a.263.263,0,0,1-.251.005.229.229,0,0,1-.086-.3q.3-.807.6-1.614c.176-.476.354-.952.527-1.429a.155.155,0,0,0-.015-.118,7.018,7.018,0,0,1-.965-2.414,6.871,6.871,0,0,1,0-2.647,6.4,6.4,0,0,1,.428-1.38,6.667,6.667,0,0,1,.61-1.106,6.579,6.579,0,0,1,2.863-2.351,6.7,6.7,0,0,1,3.219-.52,6.873,6.873,0,0,1,3.163,1.057,7.046,7.046,0,0,1,2.687,3.074A7.143,7.143,0,0,1,14.636-1721.874ZM1.5-1715.818l.1-.039c.8-.337,1.6-.67,2.388-1.017a.473.473,0,0,1,.5.034,6.337,6.337,0,0,0,4.709.879,6.027,6.027,0,0,0,3.741-2.345,6.073,6.073,0,0,0,1.233-3.321,6.335,6.335,0,0,0-.53-3.047,6.539,6.539,0,0,0-3.134-3.291,6.333,6.333,0,0,0-4.146-.563,6.1,6.1,0,0,0-2.878,1.413,5.943,5.943,0,0,0-.745.771,6.075,6.075,0,0,0-.636.97,6.267,6.267,0,0,0-.681,3.765,6.407,6.407,0,0,0,1.043,2.8.305.305,0,0,1,.033.3q-.4,1.061-.788,2.125Z" transform="translate(-0.88 1729.106)" fill="#1baae2" stroke="#1baae2" stroke-width="0.3"/>
    <path id="Path_99" data-name="Path 99" d="M9.667-1719.043a1.642,1.642,0,0,1,.369-1.04,2.5,2.5,0,0,1,1.082-.877.644.644,0,0,1,.84.274c.276.445.554.889.808,1.347.239.431.19.642-.179.975-.163.146-.338.28-.505.422-.135.114-.14.133-.081.3a2.674,2.674,0,0,0,.454.754,5.848,5.848,0,0,0,1.528,1.395,3.512,3.512,0,0,0,.4.182.133.133,0,0,0,.173-.048c.163-.2.325-.391.492-.582a1.635,1.635,0,0,1,.2-.184.525.525,0,0,1,.61-.043c.285.15.557.324.835.489.156.092.312.183.468.276.075.044.153.087.225.135a.634.634,0,0,1,.272.7,1.819,1.819,0,0,1-.438.759,2.235,2.235,0,0,1-1.157.766,2.3,2.3,0,0,1-.971-.019,5.9,5.9,0,0,1-2.285-.991,7.822,7.822,0,0,1-2.641-3.042A4.967,4.967,0,0,1,9.667-1719.043Zm.457.079a4.183,4.183,0,0,0,.393,1.542,7.3,7.3,0,0,0,2.716,3.1,5.074,5.074,0,0,0,2.012.819,1.592,1.592,0,0,0,.792-.009,2.024,2.024,0,0,0,1.151-1.076c.085-.176.039-.26-.116-.352-.333-.2-.661-.405-.994-.6-.132-.078-.27-.146-.4-.219a.157.157,0,0,0-.211.039c-.112.127-.223.255-.336.381s-.226.261-.348.381a.436.436,0,0,1-.4.107,1.844,1.844,0,0,1-.68-.287,6.457,6.457,0,0,1-1.782-1.722,2.174,2.174,0,0,1-.391-.817.461.461,0,0,1,.113-.454c.137-.133.284-.255.427-.382l.323-.288a.155.155,0,0,0,.037-.21c-.056-.1-.1-.214-.166-.316-.22-.366-.444-.728-.666-1.093a.226.226,0,0,0-.322-.114.625.625,0,0,0-.168.082,5.246,5.246,0,0,0-.555.462A1.316,1.316,0,0,0,10.125-1718.964Z" transform="translate(-6.652 1723.792)" fill="#1baae2" stroke="#1baae2" stroke-width="0.3"/>
  </g>
</svg>
